<?xml version="1.0" encoding="UTF-8"?>
<svg id="Layer_2" xmlns="http://www.w3.org/2000/svg" version="1.1" viewBox="760 410 405 260">
  <!-- Generator: Adobe Illustrator 29.8.7, SVG Export Plug-In . SVG Version: 2.1.1 Build 1)  -->
  <defs>
    <style>
      .st0, .st1 {
        fill: #2b2b2b;
      }

      .st1 {
        opacity: .3;
      }
    </style>
  </defs>
  <polygon class="st0" points="779.7 648.2 824.9 639.7 824.9 587.8 858.8 578.6 858.8 545.5 825.5 553.3 825.5 537.5 858.8 529 858.8 491.2 779.7 507.6 779.7 648.2"/>
  <polygon class="st0" points="1044.6 591.9 995.7 602.1 995.7 463.7 1057.8 449.9 1092 516.7 1090.6 441.7 1140.3 431.8 1140.3 571 1082.4 583.7 1042.9 505 1044.6 591.9"/>
  <g>
    <path class="st1" d="M1019.5,606.2l-3.3,30-6.7,1.4,1-5.7-1.7.3-1.6,5.8-6.5,1.4,11-31.6,7.8-1.7ZM1010.2,627.3l1.1-.2.8-4.4,1.3-6.4h-.1s-1.8,6.6-1.8,6.6l-1.3,4.5Z"/>
    <path class="st1" d="M1031.2,615.3h0s2.7-12.2,2.7-12.2l5.9-1.3-6.6,30.9-5.9,1.2.5-13.1h0s-3,13.6-3,13.6l-6,1.3,7-30.9,6.3-1.4-.9,11.8Z"/>
    <path class="st0" d="M1042.7,601.1l6.4-1.4-6.4,31-6.6,1.4,6.6-30.9Z"/>
    <path class="st0" d="M1052.8,628.6l1.2-11.1.7-5.4h0s-1.1,5.5-1.1,5.5l-2.3,11.4-5.6,1.2,6.4-31,7.7-1.7-1.1,10.5-.4,3.2h0s1-3.4,1-3.4l3.2-10.9,7.6-1.7-5.9,31.1-5.7,1.2,2.2-11.4,1.2-5.6h-.1s-1.5,5.6-1.5,5.6l-3.2,11.6-4.2.9Z"/>
    <path class="st0" d="M1084,592l-1.8,30.3-6.6,1.4.7-5.7-1.6.4-1.4,5.9-6.5,1.4,9.5-31.9,7.7-1.7ZM1075.8,613.3l1.1-.2.6-4.4,1-6.5h-.1s-1.5,6.6-1.5,6.6l-1.1,4.6Z"/>
    <path class="st0" d="M1096.9,594l-4.4,26.2-6.4,1.4,4.6-26.2-3.4.8.9-5,13.1-2.9-.9,5-3.4.8Z"/>
    <path class="st0" d="M1103.8,587.6l6.3-1.4-5,31.3-6.5,1.4,5.2-31.2Z"/>
    <path class="st0" d="M1123.3,607c-.7,4.7-3.7,7.7-8.1,8.7-4.5,1-6.7-.9-6-5.6l2.8-17.8c.7-4.6,3.7-7.7,8.1-8.7,4.3-1,6.6.9,5.9,5.5l-2.6,17.8ZM1115.9,610.8c.5-.1.7-.6.8-1.4l3-19.8c.1-.8,0-1.2-.4-1.1-.5.1-.8.7-.9,1.4l-3,19.8c-.1.8,0,1.2.5,1.1Z"/>
    <path class="st0" d="M1136,592.3h0s1.8-12.4,1.8-12.4l5.7-1.3-4.2,31.4-5.8,1.3-.5-13.3h0s-1.9,13.9-1.9,13.9l-5.9,1.3,4.6-31.4,6.2-1.4v12Z"/>
  </g>
  <path class="st0" d="M917.2,477.8l-50.3,9.6s-.2,18-.4,38.8l50.6-11v-37.4Z"/>
  <path class="st0" d="M989.5,463.7l-51.4,9.9v38l51.4-11.1v-36.8Z"/>
  <path class="st0" d="M938.1,529.2v40.5c0,4.3-2.5,13.2-12.1,13.2s-8.8-13.2-8.8-13.2v-36.9l-50.7,11c0,20.8,0,40.1.5,43.6,1.9,13.7,10.4,37.3,63.2,29.6,24.9-3.6,39.4-15.1,47.8-26.8,7.6-10.6,11.5-23.5,11.5-36.5v-35.7l-51.4,11.1Z"/>
</svg>
