<?xml version="1.0" encoding="UTF-8"?>
<svg id="Layer_2" xmlns="http://www.w3.org/2000/svg" version="1.1" viewBox="0 0 1920 1254">
  <!-- Generator: Adobe Illustrator 29.8.7, SVG Export Plug-In . SVG Version: 2.1.1 Build 1)  -->
  <defs>
    <style>
      .st0 {
        fill: #fd4101;
      }

      .st1 {
        fill: #09162f;
      }

      .st2 {
        fill: #fb4002;
      }

      .st3 {
        fill: #fdfdfd;
      }
    </style>
  </defs>
  <path class="st1" d="M1486,755c-2.9,9.8-5.7,19.6-8.8,30-7.3,19.1-14.3,37.5-21.7,56.1-3.1,6.3-5.9,12.4-9,18.7-1.5,2.8-2.7,5.4-4.1,8.3-5.4,9.6-10.6,18.9-16,28.5-11.7,17.1-23.1,34-34.8,51.1-1.7,2.1-3.1,4.1-4.7,6.2-3,3.5-5.5,7-8.4,10.2-13.5,14.9-27.1,29.7-40.9,44.7-.8.8-1.4,1.4-2.2,2.2-12.3,10.7-24.3,21.4-36.6,32.1-2.7,2.1-5.1,4-7.8,6.1-2.2,1.6-4,3.1-6.2,4.7-5.7,3.9-11.1,7.7-16.7,11.7-1.2.9-2.1,1.6-3.3,2.4-1.1.7-1.8,1.4-2.6,2,0,0,0,0-.3,0-1.1.7-1.9,1.3-3,2.1-1.8,1.1-3.2,2.2-5,3.3-6.7,4-12.9,8-19.4,11.7-12.7,7.1-25.5,14.1-38.6,21.1-17.8,7.5-35.2,15.1-53.1,22.6-10.2,3.3-20,6.7-30.1,10-17.1,4.1-33.8,8.2-50.9,12.3-.8,0-1.3.2-2.1.3-.7.1-1.1.3-1.9.4-9.4,1.4-18.3,2.8-27.3,4.3-2.2.4-4.3,1.1-6.8,1.7-2.8.1-5.1.2-7.9.2-13.8.9-27.2,1.9-40.9,2.8-.8,0-1.2,0-2.1,0-7.2,0-13.9,0-20.9,0-.8,0-1.2,0-2,0-10.1-.6-19.9-1.1-30.1-1.7-2.4-.3-4.4-.4-6.8-.7-1.5-.2-2.6-.2-4.1-.4-.8-.1-1.2,0-2-.2-17.1-2.7-33.9-5.3-50.9-8.1-.7-.2-1.1-.3-1.8-.4-1.2-.2-2-.3-3.1-.6-1.1-.3-1.9-.4-3.1-.7-3.1-.8-5.9-1.4-8.9-2.2-1.1-.3-1.9-.4-3-.8-1.4-.4-2.6-.6-3.9-.9-.4-.1-.6,0-1-.3-.7-.2-1.2-.3-1.9-.5-.5-.1-.7-.1-1.2-.3-6.4-1.8-12.5-3.4-19-5.3-9.7-3.3-19.2-6.4-28.9-9.6-18.4-7.9-36.5-15.7-54.9-23.7-2.1-1.1-4-2-6.1-3.1-2.4-1.3-4.6-2.3-7-3.7-2-1.2-3.9-2.1-5.9-3.3-2.8-1.4-5.5-2.2-7.8-3.6-9.2-5.6-18.4-11.4-27.8-17.5-46.1-30-87-65.4-121.8-107.5-11.5-14-22.2-28.6-33.4-43.3-3.7-5.1-7.2-9.9-10.9-15.1-2-3.8-3.9-7.2-5.9-11-10.5-19.8-20.8-39.2-31.2-58.9-3.5-8.4-6.9-16.5-10.5-24.6-.5-1.2-1.6-2.2-2.4-3.7-2.3-6.7-4.6-13.1-6.9-19.8-.4-1.8-.7-3.1-1.1-4.9-.4-.6-.9-.9-1.3-1.2,0,0,0,0,.1-.4-2.6-10.3-5.3-20.2-7.9-30.5-.4-1.9-.9-3.4-1.3-5.1,0-.2-.2-.6-.2-1-.4-1.8-.8-3.2-1.2-5-.5-2.1-1-3.8-1.4-5.8-.4-2.2-.9-4-1.4-6.1,0-.4-.2-.5-.2-1,0-.7-.3-1.2-.5-2-.4-1-.8-1.5-.9-2.1-1.4-8.8-2.7-17.7-4.1-26.9-.7-3.5-1.4-6.6-2-10.1-.3-5.4-.6-10.5-.9-16-.3-1.6-.9-2.9-1-4.1-.4-8.2-.7-16.3-.9-24.9,0-2.5-.1-4.5-.1-7-.2-1.8-.5-3.2-.9-4.9,0-5.1,0-9.9.4-14.8.5-2.4.7-4.5.7-6.7,0-6-.6-12,0-17.9,2.3-20.8,5.1-41.5,7.8-62.7,1.5-7.8,2.8-15.2,4.3-22.9,2.6-10.4,5-20.4,7.7-30.8,6.2-18.5,12.1-36.7,18.4-55.2,4.3-10.1,8.4-20,12.7-30.1,1.5-3.1,2.8-5.9,4.4-8.9,5.1-9.7,9.9-19.3,15.1-29,3-5.1,5.7-10,8.8-15.1,1.5-2.4,2.7-4.6,4.3-6.9,4.7-7.1,9.1-14,13.8-21.1,1.3-1.7,2.4-3.1,3.3-4.6,2.8-4.3,5.6-8.6,8.8-13,1.8-1.9,3.3-3.7,5.1-5.7,1-1.6,1.8-2.9,2.9-4.4,16.6-17.9,32.8-35.8,49.3-53.7.8-.7,1.3-1.2,2.1-2,8.1-7.3,16-14.4,24.1-21.7,2.9-2.3,5.4-4.6,8.3-6.9,6.8-5.2,13.4-10.4,20.2-15.6,1.8-1.3,3.3-2.4,5.1-3.7,1.7-1.2,3-2.2,4.6-3.3,1.5-1,2.6-1.9,4.1-3,1.5-1.2,2.6-2.2,4.1-3.3,3.4-2,6.5-4,9.9-6.1,18.5-10.4,36.6-20.8,55-31.2,18.8-8,37.2-15.9,56-23.9,9.2-3,17.9-6,27.2-9,18.8-4.6,37.1-9.2,55.9-13.7,6.5-1.1,12.5-2.2,18.8-3.2.8,0,1.4-.2,2.3-.3,1.4-.2,2.4-.4,3.8-.6,9.5-1.1,18.5-2.2,28-3.2,4.2-.3,7.9-.6,12-.9,2.8,0,5.2-.3,7.9-.3,3.5-.1,6.6-.4,10.1-.5,9.5-.1,18.6-.4,27.7-.6,0,0,0,0,.1.2,1,.3,1.8.3,3,.4,1.1,0,1.8,0,3,.1,16.5,1.4,32.6,2.6,49.1,3.9,1.6,0,2.7-.2,3.8,0,7.2,1.4,14.4,2.8,21.8,4.5,3.2.6,6,1,9.2,1.6,2.4.6,4.5.9,6.8,1.5.7.2,1.1.2,1.8.4,3.2.8,6.1,1.3,9.4,2.1,10.8,2.9,21.2,5.7,32,8.6,8.8,2.9,17.2,5.6,25.9,8.5,5.5,2.2,10.8,4.1,16.4,6.3,4.2,1.8,8.2,3.4,12.4,5.2,8.6,4,17,7.7,25.6,11.7,2,1.1,3.9,2,5.6,2.9,16.9,9.5,33.9,18.9,51,28.7,4.1,2.8,8,5.3,12,8,5.3,3.8,10.5,7.4,15.8,11.3,2.7,2.1,5.3,3.9,8.1,6,4.3,3.4,8.4,6.5,12.7,10,2.5,2.1,4.8,3.9,7.1,5.7,9.3,8.5,19.2,16.5,27.9,25.6,16.2,17,31.7,34.6,47.9,52.4,2.4,2.9,4.3,5.3,6.4,8.1,6.3,8.8,12.6,17.3,18.9,26.1,2.8,4.5,5.6,8.6,8.5,13.1,2.5,4.2,5,8,7.4,12.1,8.6,16.4,17.2,32.4,25.9,48.8,4.7,11.1,9.3,21.9,14,33,5.9,18.1,11.7,35.8,17.6,53.9,2.5,10.5,5.1,20.5,7.6,31,1.4,8.4,3.3,16.3,4.3,24.3,2.5,19.7,4.7,39.5,6.9,59.6,0,.8,0,1.2,0,2,.1,2.5.3,4.6.5,6.7,0,1.4,0,2.7,0,5,.4,5.5.9,10.2,1.3,15.1-.2,2-.5,3.9-1,6.1-.3,6.1-.4,11.8-.8,17.9-.2,4.2-.2,8-.3,12.2,0,.8,0,1.2-.1,2.1-1.1,11.1-2.1,21.8-3.2,32.9-2.3,13.5-4.3,26.7-6.6,40.2-1.8,7.7-3.4,15.1-5,22.6M844.2,533.7c22.8-6.1,45.7-12.3,68.5-18.4,13.7-3.7,27.4-6.9,41-11.1,11.2-3.4,17-11.8,18.3-23.3,3.4-29.5-.1-58.1-10.8-85.8-4.4-11.5-12.3-16.9-24.6-17.4-20.2-.9-39.8,2.8-59.5,6-60.8,9.8-120,25.9-177.6,47.6-14.9,5.6-29.4,12.3-43.7,19.4-12,6-18.7,16.4-19.3,30-.3,7.8-.3,15.7.2,23.5,3.8,60.8,12.3,121,22.5,180.9,11.8,69.2,27.1,137.6,48.9,204.4,6.3,19.1,12.8,38.1,22.8,55.8,7.3,12.9,17.9,19.2,32.7,18.8,20.1-.5,39.3-4.9,57.8-12.5,18.8-7.7,23.3-15.3,19.1-35.4-3.7-17.7-9.1-35.1-13.5-52.7-7.2-28.9-14.3-57.9-21.3-86.8-2.5-10.2-.2-14.3,10.1-16.7,34.3-8.2,68.7-16.2,103-24.3,12.1-2.8,24.4-5.1,36.5-8.3,9.3-2.4,14.1-9.4,15.9-18.7,3.4-17.3,3.8-34.8,1.3-52.2-1.6-11.1-4.4-22.1-7.5-32.9-2.1-7.6-8.2-11.8-15.9-12.5-7.1-.7-14.4-1.2-21.4-.4-35,3.7-69.2,11.8-103.1,21.1-10.6,2.9-21.2,5.8-31.8,8.7-9.9,2.7-13.9.1-15.6-10.1-.9-5.6-1.9-11.2-2.8-16.7-2.1-13.3-4.3-26.6-6.1-40-1.5-11.4.8-15,11.6-18.6,21.2-7.1,42.3-14.1,64.3-21.3M1113.5,947.2c10.1-1.1,20.2-1.8,30.2-3.5,9.7-1.6,16.2-7.7,18.8-17.2,1.9-6.7,3.8-13.5,4.4-20.4,3.3-36.6,6-73.3,9.1-110,2-23,4.3-46.1,6.7-69.1,1.9-18.7,4.1-37.4,6.4-56.1,3.1-24.8,6.6-49.5,9.6-74.3,2.4-20.5,4.7-41,6.4-61.5,1.1-13.2-5.5-22-17.6-27.3-18.7-8.2-38.5-11.8-58.6-13.6-17.1-1.6-34.2-1.6-51.2,2-14.8,3.1-23.8,11.8-27.8,26.2-.9,3.4-2.2,6.7-2.7,10.1-3.5,27.6-7.7,55.1-9.9,82.8-3.1,40-5.5,80.1-6.8,120.2-1.4,40.6-1.5,81.3-1.4,121.9,0,16.9,1.1,34,3.1,50.8,2.5,21.2,11.1,30.6,32.2,34.4,15.8,2.8,32.1,3.2,49.1,4.7M1182.6,319.4c-3.2-11.8-11.5-18-22.9-20.5-11.2-2.5-21.2,0-29.1,8.7-5.3,5.9-8,13.2-8.7,20.9-2,23.2-3.7,46.4-5.1,69.6-.4,6.6.3,13.3,1,19.9.8,7,4.5,12.1,11.6,14.1,7.3,2.1,13.2-.4,17.8-6,2.3-2.8,4.3-6,5.6-9.4,8.7-23,17.4-46,25.8-69.2,3.2-8.8,5.4-17.9,3.9-28.2M1023.5,385c8.5,13.7,16.8,27.6,25.4,41.2,3.3,5.1,7.6,9.4,14.2,9.9,11.9,1,20.1-8.9,18.2-22.2-3.9-27.2-10-54-18.2-80.2-1.5-4.9-3.8-9.7-6.5-13.9-3.9-6.1-9.7-9.9-17.3-10.6-21.7-2.1-42,17.6-32.6,41.2,4.7,11.7,10.9,22.8,16.8,34.8M1228.4,371.9c-15.2,17.1-28.9,35.3-40.6,54.9-1.8,3.1-3.3,6.6-4.2,10.1-1.9,7.6,3.1,15.3,10.7,17.2,7.4,1.9,14-.9,19.7-4.9,20.8-14.4,41.5-28.9,61.7-44.1,4.9-3.7,8.6-9.9,10.9-15.7,4-10.5-1.5-23.2-12-30.9-9.3-6.8-21.3-7.2-31.3-.1-5.2,3.7-9.6,8.7-14.9,13.5Z"/>
  <path class="st3" d="M843.8,533.8c-21.6,7.1-42.7,14.1-63.9,21.2-10.8,3.6-13.2,7.2-11.6,18.6,1.8,13.4,4,26.7,6.1,40,.9,5.6,1.9,11.2,2.8,16.7,1.7,10.2,5.7,12.8,15.6,10.1,10.6-2.9,21.2-5.8,31.8-8.7,33.9-9.4,68.1-17.4,103.1-21.1,7-.8,14.3-.2,21.4.4,7.7.7,13.8,4.9,15.9,12.5,3,10.8,5.9,21.8,7.5,32.9,2.5,17.4,2.1,34.9-1.3,52.2-1.8,9.3-6.6,16.2-15.9,18.7-12.1,3.2-24.3,5.5-36.5,8.3-34.4,8-68.7,16-103,24.3-10.3,2.5-12.5,6.5-10.1,16.7,7,29,14.1,57.9,21.3,86.8,4.4,17.6,9.8,35,13.5,52.7,4.2,20.1-.3,27.6-19.1,35.4-18.5,7.6-37.7,11.9-57.8,12.5-14.8.4-25.4-5.9-32.7-18.8-10-17.7-16.5-36.7-22.8-55.8-21.9-66.8-37.1-135.2-48.9-204.4-10.3-60-18.8-120.2-22.5-180.9-.5-7.8-.5-15.7-.2-23.5.6-13.7,7.3-24,19.3-30,14.2-7.1,28.8-13.8,43.7-19.4,57.6-21.6,116.8-37.7,177.6-47.6,19.7-3.2,39.4-6.9,59.5-6,12.3.6,20.2,6,24.6,17.4,10.6,27.8,14.1,56.3,10.8,85.8-1.3,11.5-7.2,19.9-18.3,23.3-13.5,4.1-27.3,7.4-41,11.1-22.8,6.1-45.7,12.3-68.9,18.5Z"/>
  <path class="st0" d="M1113,947.2c-16.6-1.5-32.8-1.9-48.6-4.7-21.1-3.7-29.7-13.2-32.2-34.4-2-16.8-3.1-33.9-3.1-50.8,0-40.6,0-81.3,1.4-121.9,1.3-40.1,3.7-80.2,6.8-120.2,2.2-27.7,6.4-55.2,9.9-82.8.4-3.4,1.7-6.8,2.7-10.1,4-14.3,13-23,27.8-26.2,17-3.6,34.1-3.5,51.2-2,20.1,1.8,39.9,5.4,58.6,13.6,12,5.3,18.7,14.1,17.6,27.3-1.7,20.5-4,41.1-6.4,61.5-3,24.8-6.5,49.5-9.6,74.3-2.3,18.7-4.4,37.4-6.4,56.1-2.4,23-4.7,46-6.7,69.1-3.2,36.7-5.9,73.3-9.1,110-.6,6.9-2.5,13.7-4.4,20.4-2.6,9.5-9.1,15.6-18.8,17.2-10,1.7-20.1,2.4-30.7,3.5Z"/>
  <path class="st2" d="M1182.7,319.8c1.4,9.9-.9,19-4,27.8-8.4,23.1-17,46.2-25.8,69.2-1.3,3.4-3.3,6.6-5.6,9.4-4.6,5.6-10.5,8-17.8,6-7.1-2-10.8-7.1-11.6-14.1-.8-6.6-1.4-13.3-1-19.9,1.4-23.2,3.1-46.4,5.1-69.6.7-7.7,3.4-15,8.7-20.9,7.9-8.8,17.9-11.2,29.1-8.7,11.3,2.5,19.7,8.7,23,20.9Z"/>
  <path class="st2" d="M1023.3,384.7c-5.7-11.7-11.9-22.8-16.6-34.5-9.4-23.6,10.9-43.3,32.6-41.2,7.5.7,13.3,4.5,17.3,10.6,2.8,4.3,5,9.1,6.5,13.9,8.2,26.3,14.3,53,18.2,80.2,1.9,13.4-6.2,23.2-18.2,22.2-6.6-.5-11-4.8-14.2-9.9-8.6-13.6-17-27.4-25.6-41.5Z"/>
  <path class="st2" d="M1228.7,371.7c5-4.6,9.4-9.6,14.6-13.3,10-7.1,22-6.7,31.3.1,10.5,7.7,16,20.4,12,30.9-2.2,5.8-6,12-10.9,15.7-20.2,15.2-40.9,29.7-61.7,44.1-5.8,4-12.3,6.7-19.7,4.9-7.6-1.9-12.6-9.6-10.7-17.2.9-3.5,2.3-7,4.2-10.1,11.7-19.7,25.5-37.8,40.9-55.2Z"/>
</svg>