<?xml version="1.0" encoding="UTF-8"?>
<svg id="Layer_1" xmlns="http://www.w3.org/2000/svg" version="1.1" viewBox="340 315 850 250">
  <!-- Generator: Adobe Illustrator 29.8.7, SVG Export Plug-In . SVG Version: 2.1.1 Build 1)  -->
  <defs>
    <style>
      path {
        fill: #292c33;
      }

      .st0 {
        fill: #fff;
      }

      .st1 {
        fill: #fe4d1a;
      }
    </style>
  </defs>
  <path d="M476.9,390.3l-78.3,14.8,4.2,38.4c.5.7,1.1.9,2,.9,4.4.3,14.6-2.7,20.1-2.9s10.3-.4,12.4.9c3.7,6.2,6.6,25.3-1.1,28.6s-21.9,3.4-30,4.1c1.6,19.5,8,38.2,11.3,57.4s3.7,19-13.7,20.4c-18.9,1.5-18.7-2.7-23.2-19-11.2-40.4-25.8-105.4-28.1-146.6s-1-9.2,5.1-12.2c20.4-10.1,67.1-17.1,90.4-19s19.1-2.1,24.9-.9,3.7,2.9,4.4,5.2c1.8,5.6,3.6,26.1-.3,30Z"/>
  <path class="st1" d="M779.5,452c-2,.9-2.6,3.9-3.3,5.8-3.8,9.5-6.6,19.5-10.4,29-3.8,9.4-4.5,18.9-16.6,18.8s-11.4-6.9-14.6-14.9-7.3-22.9-12.2-33.8l-12.9,67.5c-3.9,5-27.8,3.3-25.1-7.5,6.1-32.4,6.5-67.5,12.7-99.7,2.5-12.9,3.2-16.6,17.6-16s15.4,3.2,20.1,15.4c5,13.1,7.9,27.5,13.5,40.3,1.6.4,1.9-1.3,2.5-2.3,5.9-12.2,9.1-28.3,14.8-40.8s3.1-6.4,7.8-7.6,26.2-1.9,30.6.9,2.1,3.5,2.4,5.3c2.5,17.4-.4,43.7,0,62.3.2,11.4.6,23.1,1,34.6.3,9.5,3.4,21.3.5,30.2-3.7,4.4-21.7,2-25.4-3.3s-2.9-7.6-2.9-8.7v-75.4Z"/>
  <path d="M1171.9,406.2c3.3,2.8,2.4,15.7,2.2,20.4-.7,26.8-3,53.8-3,80.6,0,8.3,1.8,17.2,1.1,25.9s-14.8,10-21.5,6.1-13.2-17.8-16.8-23.6c-8.3-13.5-15.7-27.7-23.2-41.6l-1.9.5,11.4,58.4c-.6,2.6-6.5,3.3-9,3.5-19.7,1.7-20.1-8.9-23.2-24.7-5.8-29.9-7.2-60.9-12.6-91,.3-9.1,23.7-8.2,29.6-5.7,4.4,1.9,9.4,12.2,12,16.8,8.6,15.1,15.4,33.7,24,48,.6,1,1,2.6,2.4,2.9l-5.7-57.1c.5-5.5-1.9-17,3.4-20.5,4.9-3.2,26.4-2.6,30.8,1.1Z"/>
  <path d="M574.1,463.5l5.6,61.7c-1.5,5.1-18.3,4.2-22.2,2.4-7.4-3.6-9-27.7-10.2-35.9-3.3-23.2-8.5-53-9.7-75.7s-1.2-11,5.2-13,17-1.5,22.1-.9,7.7,3.6,10.9,8.3c8.2,12.5,17.3,31.5,23.9,45.2.6,1.3-.6,2.6,2.2,2.1-2-12.5-3.9-25.3-4.8-37.9s-1.8-17.5.2-20.9,1.3-1.7,2.6-2.2c5.1-1.8,23.6-1.3,27.5,2.4s2.1,4.1,2.4,6.3c1.6,14.4-.5,33,0,48,.6,21.2,2.2,43,5,64.2s5.1,10.7-5.8,12.6c-18.3,3.2-23-11.9-30.9-24.8s-16.3-27.8-23.8-41.9Z"/>
  <path d="M958.1,399.2c11.4.3,27.5-3,38.4-.5s10.1,25-1.5,24.5l-62.9,1c-1.1,17.4-1.4,34.9-1,52.4s1.7,22.5,2,33.5c0,3.5.6,16.7-1.2,18.5-2.9,2.9-14.8,2.5-18.8,1.5-6.9-1.8-7-7.1-7.8-13.3-2.4-16.7-1.5-34.1-3.9-50.8v-40.8c-11.6.8-23.3.6-35,.9s-4.4,1-6.6,1c-3.9,0-19.3.7-21.4-1.3s-2.8-11-1.7-14.2c1.7-5.3,14.3-6,19.3-6.7,23.2-3.1,47.2-2.9,70.6-3.8-.8-14.7,0-20.9,15.8-22.1,17-1.3,18.7,3.9,15.8,20.1Z"/>
  <path d="M490.9,497.8c4.6,5.2,12.3,4.4,14.4-2.8,5.4-17.9-2.7-47.8-3.2-66.6s4.3-7.6,10.1-8.2c17.2-1.6,17.9,2.5,19.7,17.8s2.5,25.9,2.9,37.4c.8,21,0,51.2-24.8,57.8-28,7.6-48.3-7.7-55.6-34.1s-6.4-53.7-6.5-78.9c2.9-6.1,33-4.4,35.5,1l1.4,55.2c.6,5.3,2.5,17.4,6,21.3Z"/>
  <path d="M1021.2,423.5c43.4-5.2,59.5,32.8,55.8,70.2s-17.8,40.8-40.8,42.7c-73.1,6.1-71.7-106.1-15-112.9ZM1029,447.4c-36.7,1.8-36.2,70.4,9.2,64.9,31.3-3.8,29-66.8-9.2-64.9Z"/>
  <path d="M838.1,504.8c-.6,5.2.1,17-6.5,18.1-2.1.4-12-2-13.7-3.2-5-3.8-.8-23.4.2-29.4s2.6-13,4-19,8-33.1,11.6-35.4c5.7-3.6,27.3-1.9,33.7.7s7.4,9,9.2,13.8c6.7,18.1,14,45.5,18.1,64.5,2.3,10.8,5.2,15.1-8.2,16-22.8,1.5-17.6-8.9-24.5-25.5l-24-.4ZM858.2,486.6c-2.4-6.8-2.8-16.2-5.7-22.6s-1-2.7-2.9-2.3l-6.6,24.4c.9,3.6,12.3-.6,15.3.5Z"/>
  <path d="M649.6,441.6c5.2-1.5,25.9.2,27.1,7,.4,18-2,35.8-2.9,53.7s1.8,24.1-2.3,27.4-26.9,2.7-27.2-6.5l1.7-75.6c0-2.1,1.4-5.4,3.6-6Z"/>
  <path d="M946.8,435.9c5.6-3,26.3-3.6,28.4,3.3s-1.5,16.9-1.8,21.8c-1.2,21.5-.5,42.9,1,64.4l-.9,2.9c-7.8,4.1-23.6,5-25.8-6.1-3.6-18.3-3.8-62.3-2.2-81.4.1-1.8.2-3.5,1.2-5Z"/>
  <path class="st1" d="M660.2,368.7c6.3-1.2,17.7.5,22.8,4.6s3.7,4.2,3.1,8.9c-1,7.9-7.8,33.5-10.8,41s-2.9,6.1-6.8,6.7c-6.2,1-24.8-.2-26.3-8.1s3.8-32.6,6.7-40.3,4.5-11.5,11.3-12.7Z"/>
  <path class="st1" d="M1025.1,327.4c6.6-.7,16.1,3.1,15.5,10.7s-15.2,37.8-18.9,43.5c-4.7,7.1-10.6,3.1-10.8-4.1-.2-7.8,2.5-25.2,4-33.4,1.2-6.8,1.6-15.8,10.2-16.8Z"/>
  <path class="st1" d="M978,327.4c12.2-2.7,11.9,5.3,12.7,14.7.7,7.2,1.7,21.1,1,27.9s-6.4,6-9.2-.5-8-25.6-8.9-32.4-1-8.4,4.3-9.6Z"/>
  <path class="st1" d="M1069.1,352.4c4.7.6,7.9,6.5,8.1,10.9s-3.1,6.1-6.1,8.3-24.1,16.3-27.6,17.5-6.8.7-5.6-3.6,3.8-4.8,4.7-5.9c4.7-6,12-14.8,17.2-20.2s5.4-5.8,9.3-7Z"/>
  <path class="st0" d="M1029,447.4c38.2-1.8,40.5,61.2,9.2,64.9-45.3,5.5-45.9-63.2-9.2-64.9ZM1040.6,472.2c-.5-3.6,3.5-5,4.8-8.2-8.6-7-21.7-1.5-25,8.6-9.6,29.6,32.4,40.3,32.8,8.7.2-17.6-9.7-6.4-12.5-9.1Z"/>
  <path class="st0" d="M858.2,486.6c-2.9-1.1-14.4,3.1-15.3-.5l6.6-24.4c1.9-.4,2.3.9,2.9,2.3,2.9,6.4,3.2,15.8,5.7,22.6Z"/>
  <path d="M1040.6,472.2c2.9,2.8,12.8-8.5,12.5,9.1-.4,31.6-42.4,20.9-32.8-8.7,3.3-10.1,16.4-15.6,25-8.6-1.2,3.1-5.3,4.5-4.8,8.2Z"/>
</svg>
